<svg width="397" height="86" viewBox="0 0 397 86" fill="none" xmlns="http://www.w3.org/2000/svg">
<ellipse cx="198.015" cy="199.5" rx="198.015" ry="199.5" fill="#9FC164"/>
<mask id="mask0_62_2293" style="mask-type:alpha" maskUnits="userSpaceOnUse" x="0" y="0" width="397" height="399">
<ellipse cx="198.015" cy="199.5" rx="198.015" ry="199.5" fill="#9FC164"/>
</mask>
<g mask="url(#mask0_62_2293)">
<path d="M201.799 -5.44009C207.294 -5.10031 105.352 68.0855 145.597 89.0987C31.6107 96.557 100.501 68.0855 131.356 38.3018C131.356 22.5754 150.593 -3.6652 167.645 -4.63385C192.484 -6.0449 185.498 -6.44801 201.799 -5.44009Z" fill="#4F4CB0"/>
<path d="M312.799 34.8748C266.939 29.7689 251.174 67.497 275.178 89.0987C228.927 89.0987 145.597 100.992 224.892 68.3365C224.892 52.6101 237.675 23.3977 241.969 1.01024C272.824 8.8716 289.124 15.3221 312.799 34.8748Z" fill="#4F4CB0"/>
</g>
</svg>
