<svg width="310" height="122" viewBox="0 0 310 122" fill="none" xmlns="http://www.w3.org/2000/svg">
<circle cx="154.852" cy="-33.1478" r="154.852" fill="#DBDADA"/>
<path d="M72.4755 35.5503C72.4755 41.3813 70.6444 43.7152 57.2718 43.7152C43.8992 43.7152 37.5633 49.5463 37.5633 43.7152C37.5633 37.8841 33.2003 27.6669 46.5729 27.6669C59.9455 27.6669 72.4755 29.7192 72.4755 35.5503Z" fill="#B3B3B3"/>
<path d="M167.623 35.0391C169.801 40.4484 175.05 46.8259 165.512 50.665C155.974 54.5042 144.462 50.772 142.285 45.3627C140.107 39.9533 135.984 33.1064 145.522 29.2673C155.06 25.4281 165.446 29.6297 167.623 35.0391Z" fill="#B3B3B3"/>
<path d="M223.032 0.452875C225.21 5.8622 238.866 12.0101 229.328 15.8492C219.79 19.6884 204.797 15.2941 202.62 9.88477C200.443 4.47545 199.8 -1.70938 209.338 -5.54852C218.876 -9.38766 220.855 -4.95645 223.032 0.452875Z" fill="#B3B3B3"/>
<path d="M109.767 6.10583C111.944 11.5152 106.956 10.6612 97.418 14.5004C87.8801 18.3395 86.5655 6.67689 84.3882 1.26756C82.2109 -4.14176 74.8502 -6.15042 84.3882 -9.98956C93.9261 -13.8287 107.59 0.69651 109.767 6.10583Z" fill="#B3B3B3"/>
<path d="M130.217 87.3553C133.494 95.4985 137.898 107.325 130.217 103.826C123.521 106.521 108.014 106.197 104.736 98.0542C101.459 89.911 103.125 78.8818 109.821 76.1868C116.516 73.4918 126.939 79.2121 130.217 87.3553Z" fill="#B3B3B3"/>
<path d="M266.661 53.9066C263.094 58.5196 255.491 56.9743 247.357 50.6852C239.223 44.396 240.992 38.8111 244.559 34.1982C248.126 29.5852 249.517 34.3847 257.651 40.6738C265.785 46.963 270.227 49.2937 266.661 53.9066Z" fill="#B3B3B3"/>
<path d="M207.643 100.447C204.076 105.06 188.323 103.101 179.611 96.3649C170.899 89.6285 176.044 83.4278 179.611 78.8148C183.178 74.2019 187.528 81.0413 196.24 87.7776C204.952 94.514 211.209 95.8344 207.643 100.447Z" fill="#B3B3B3"/>
</svg>
