<svg width="54" height="54" viewBox="0 0 54 54" fill="none" xmlns="http://www.w3.org/2000/svg">
<path id="Vector" fill-rule="evenodd" clip-rule="evenodd" d="M27 2C21.0646 1.99688 15.322 4.16072 10.8004 8.10406C6.27884 12.0474 3.27357 17.5127 2.32275 23.5214C1.37194 29.53 2.53768 35.6896 5.61123 40.8971C8.68478 46.1046 13.4654 50.02 19.0971 51.9421C20.3523 52.1805 20.8055 51.3938 20.8055 50.7502C20.8055 50.1065 20.8055 48.5332 20.8055 46.3996C13.8324 47.9491 12.3913 42.9668 12.3913 42.9668C11.93 41.3904 10.9265 40.0393 9.56713 39.1646C7.30086 37.5793 9.74146 37.6031 9.74146 37.6031C10.5331 37.7168 11.289 38.0142 11.9516 38.4727C12.6142 38.9313 13.166 39.5389 13.5651 40.2492C15.7965 44.1707 19.376 43.0384 20.8404 42.3828C20.956 41.0807 21.5205 39.8636 22.4326 38.95C16.8773 38.3064 11.0431 36.1132 11.0431 26.2917C11.0063 23.7437 11.9307 21.2797 13.6232 19.4142C12.8542 17.2049 12.9416 14.7772 13.8672 12.6321C13.8672 12.6321 15.9592 11.9407 20.7358 15.2543C24.8295 14.1101 29.1472 14.1101 33.2409 15.2543C38.0176 11.9407 40.1095 12.6321 40.1095 12.6321C41.0281 14.7789 41.1154 17.2038 40.3536 19.4142C42.0429 21.2809 42.9632 23.7452 42.922 26.2917C42.922 36.137 37.111 38.2945 31.5209 38.9381C32.1207 39.5614 32.5827 40.3098 32.8755 41.1325C33.1683 41.9552 33.285 42.8328 33.2177 43.7058C33.2177 47.1267 33.2177 49.892 33.2177 50.7383C33.2177 51.5845 33.671 52.2163 34.9377 51.9302C40.5637 50.0006 45.3367 46.0811 48.403 40.8729C51.4693 35.6647 52.6289 29.5075 51.6743 23.5028C50.7197 17.498 47.7132 12.0375 43.1926 8.09795C38.6719 4.15841 32.9322 1.99687 27 2Z" stroke="white" stroke-width="2.23889" stroke-linecap="round" stroke-linejoin="round"/>
</svg>
